<svg width="699" height="153" viewBox="0 0 699 153" fill="none" xmlns="http://www.w3.org/2000/svg">
<g opacity="0.56">
<path d="M27.5719 70.0432C20.3744 78.3001 14.2051 87.4605 9.28215 97.3688C21.9011 123.76 45.2385 144.075 73.6235 152.674C73.8727 152.612 74.122 152.518 74.3712 152.425C85.0273 140.211 93.3153 125.878 98.5499 110.175C70.7881 104.442 46.1421 90.0778 27.5719 70.0432Z" fill="#6366F1"/>
</g>
<path d="M145.567 28.3849L145.536 28.3538C128.898 12.8059 107.243 2.61728 83.2824 0.436218C89.2959 9.22278 94.2189 18.8506 97.8332 29.0393C102.445 42.0633 104.968 56.0533 104.968 70.6664C104.968 84.4694 102.725 97.7427 98.581 110.144C93.3465 125.847 85.0273 140.18 74.4024 152.394C96.6181 145.477 115.656 131.393 128.835 112.854C141.081 95.6551 148.278 74.6546 148.278 51.9716C148.247 43.8705 147.281 35.9875 145.567 28.3849Z" fill="#6366F1"/>
<path d="M84.2824 0.43622C81.1043 0.155798 77.9262 0 74.7169 0C46.7993 0 21.4679 10.8742 2.64843 28.6031C2.61727 28.7589 2.58611 28.9458 2.55495 29.1016C0.903577 36.486 0 44.1509 0 52.0027C0 68.2672 3.67665 83.6281 10.2821 97.3688C15.2051 87.4606 21.3744 78.269 28.5719 70.0432C46.5501 49.4789 71.0403 34.7412 98.8332 29.0393C95.1877 18.8506 90.2959 9.25394 84.2824 0.43622Z" fill="#6366F1"/>
<path d="M176.599 98.1715C176.238 97.8382 176.057 97.4215 176.057 96.9215L176.224 96.1714L196.308 42.4188C196.697 41.0298 197.669 40.3353 199.225 40.3353H208.309C209.753 40.3353 210.726 41.0298 211.226 42.4188L231.31 96.1714C231.366 96.3381 231.393 96.5881 231.393 96.9215C231.393 97.4215 231.227 97.8382 230.893 98.1715C230.56 98.5049 230.171 98.6716 229.727 98.6716H222.476C221.754 98.6716 221.198 98.5049 220.809 98.1715C220.421 97.8382 220.171 97.4771 220.059 97.0882L216.143 86.921H191.391L187.474 97.0882C187.03 98.1438 186.224 98.6716 185.058 98.6716H177.807C177.363 98.6716 176.96 98.5049 176.599 98.1715ZM213.226 77.3372L203.725 51.5859L194.308 77.3372H213.226ZM239.977 94.088C236.977 90.4767 235.366 85.6709 235.144 79.6706L235.06 76.9205L235.144 74.2537C235.31 68.4201 236.907 63.6698 239.935 60.003C242.963 56.3361 247.283 54.5027 252.894 54.5027C258.284 54.5027 262.562 56.3361 265.728 60.003V41.502C265.728 40.8909 265.923 40.4048 266.312 40.0436C266.701 39.6825 267.173 39.502 267.728 39.502H274.812C275.423 39.502 275.909 39.6825 276.271 40.0436C276.632 40.4048 276.812 40.8909 276.812 41.502V96.6715C276.812 97.2271 276.632 97.6993 276.271 98.0882C275.909 98.4771 275.423 98.6716 274.812 98.6716H268.228C267.673 98.6716 267.201 98.4771 266.812 98.0882C266.423 97.6993 266.228 97.2271 266.228 96.6715V93.588C263.062 97.5326 258.617 99.5049 252.894 99.5049C247.283 99.5049 242.977 97.6993 239.977 94.088ZM263.145 87.5043C264.701 85.4487 265.562 82.9208 265.728 79.9206C265.784 79.2539 265.812 78.1705 265.812 76.6705C265.812 75.2259 265.784 74.1704 265.728 73.5037C265.617 70.7257 264.742 68.3506 263.103 66.3783C261.464 64.406 259.089 63.4198 255.978 63.4198C249.978 63.4198 246.783 67.1144 246.394 74.5037L246.311 77.0038L246.394 79.504C246.783 86.8932 249.978 90.5878 255.978 90.5878C259.2 90.5878 261.589 89.56 263.145 87.5043ZM287.646 98.0882C287.257 97.6993 287.063 97.2271 287.063 96.6715V57.3362C287.063 56.7806 287.257 56.3083 287.646 55.9194C288.035 55.5305 288.507 55.3361 289.063 55.3361H295.563C296.119 55.3361 296.591 55.5305 296.98 55.9194C297.369 56.3083 297.563 56.7806 297.563 57.3362V60.1696C300.452 56.3917 304.48 54.5027 309.647 54.5027C315.814 54.5027 320.12 56.975 322.565 61.9197C323.898 59.6974 325.787 57.9056 328.231 56.5445C330.676 55.1833 333.315 54.5027 336.149 54.5027C340.704 54.5027 344.427 56.0583 347.316 59.1696C350.205 62.2808 351.649 66.8089 351.649 72.7536V96.6715C351.649 97.2271 351.469 97.6993 351.108 98.0882C350.747 98.4771 350.26 98.6716 349.649 98.6716H342.816C342.26 98.6716 341.788 98.4771 341.399 98.0882C341.01 97.6993 340.815 97.2271 340.815 96.6715V73.4203C340.815 69.9201 340.079 67.3783 338.607 65.7949C337.135 64.2115 335.176 63.4198 332.732 63.4198C330.565 63.4198 328.718 64.2254 327.19 65.8366C325.662 67.4478 324.898 69.9757 324.898 73.4203V96.6715C324.898 97.2271 324.704 97.6993 324.315 98.0882C323.926 98.4771 323.453 98.6716 322.898 98.6716H316.064C315.509 98.6716 315.036 98.4771 314.647 98.0882C314.259 97.6993 314.064 97.2271 314.064 96.6715V73.4203C314.064 69.9201 313.3 67.3783 311.772 65.7949C310.244 64.2115 308.314 63.4198 305.98 63.4198C303.758 63.4198 301.883 64.2254 300.355 65.8366C298.827 67.4478 298.063 69.9757 298.063 73.4203V96.6715C298.063 97.2271 297.869 97.6993 297.48 98.0882C297.091 98.4771 296.619 98.6716 296.063 98.6716H289.063C288.507 98.6716 288.035 98.4771 287.646 98.0882ZM361.65 47.5857C361.261 47.1968 361.066 46.7245 361.066 46.169V40.1686C361.066 39.6131 361.261 39.1408 361.65 38.7519C362.039 38.363 362.511 38.1685 363.067 38.1685H370.65C371.206 38.1685 371.692 38.363 372.109 38.7519C372.525 39.1408 372.734 39.6131 372.734 40.1686V46.169C372.734 46.7245 372.539 47.1968 372.15 47.5857C371.761 47.9746 371.261 48.169 370.65 48.169H363.067C362.511 48.169 362.039 47.9746 361.65 47.5857ZM361.983 98.0882C361.594 97.6993 361.4 97.2271 361.4 96.6715V57.3362C361.4 56.7806 361.594 56.3083 361.983 55.9194C362.372 55.5305 362.844 55.3361 363.4 55.3361H370.317C370.928 55.3361 371.414 55.5166 371.775 55.8778C372.136 56.2389 372.317 56.725 372.317 57.3362V96.6715C372.317 97.2271 372.136 97.6993 371.775 98.0882C371.414 98.4771 370.928 98.6716 370.317 98.6716H363.4C362.844 98.6716 362.372 98.4771 361.983 98.0882ZM383.151 98.0882C382.762 97.6993 382.568 97.2271 382.568 96.6715V57.3362C382.568 56.7806 382.762 56.3083 383.151 55.9194C383.54 55.5305 384.012 55.3361 384.568 55.3361H391.401C391.957 55.3361 392.429 55.5305 392.818 55.9194C393.207 56.3083 393.401 56.7806 393.401 57.3362V60.753C396.679 56.5861 401.318 54.5027 407.319 54.5027C412.43 54.5027 416.486 56.1833 419.486 59.5446C422.486 62.9059 423.986 67.4756 423.986 73.2536V96.6715C423.986 97.2271 423.806 97.6993 423.445 98.0882C423.083 98.4771 422.597 98.6716 421.986 98.6716H414.652C414.097 98.6716 413.625 98.4771 413.236 98.0882C412.847 97.6993 412.652 97.2271 412.652 96.6715V73.7537C412.652 70.4757 411.861 67.9339 410.277 66.1283C408.694 64.3226 406.402 63.4198 403.402 63.4198C400.457 63.4198 398.138 64.3365 396.443 66.17C394.749 68.0034 393.901 70.5313 393.901 73.7537V96.6715C393.901 97.2271 393.721 97.6993 393.36 98.0882C392.999 98.4771 392.512 98.6716 391.901 98.6716H384.568C384.012 98.6716 383.54 98.4771 383.151 98.0882ZM439.654 97.6298C436.82 96.3798 434.723 94.9075 433.362 93.213C432.001 91.5184 431.32 90.06 431.32 88.8377C431.32 88.2821 431.514 87.8377 431.903 87.5043C432.292 87.171 432.737 87.0043 433.237 87.0043H439.82C440.32 87.0043 440.737 87.1988 441.07 87.5877C441.293 87.7543 441.876 88.2544 442.821 89.0878C443.765 89.9767 444.876 90.6712 446.154 91.1712C447.432 91.6712 448.849 91.9212 450.404 91.9212C452.627 91.9212 454.46 91.4767 455.905 90.5878C457.349 89.6989 458.071 88.4766 458.071 86.921C458.071 85.7542 457.752 84.8098 457.113 84.0875C456.474 83.3652 455.321 82.7124 453.654 82.1291C451.988 81.5457 449.515 80.9207 446.237 80.254C441.515 79.2539 438.029 77.7261 435.779 75.6704C433.528 73.6148 432.403 70.8924 432.403 67.5033C432.403 65.281 433.07 63.1837 434.403 61.2114C435.737 59.239 437.723 57.6279 440.362 56.3778C443.001 55.1277 446.154 54.5027 449.821 54.5027C453.543 54.5027 456.766 55.1 459.488 56.2945C462.21 57.489 464.28 58.9057 465.697 60.5447C467.113 62.1836 467.822 63.642 467.822 64.9199C467.822 65.4199 467.641 65.8505 467.28 66.2116C466.919 66.5727 466.488 66.7533 465.988 66.7533H459.821C459.377 66.7533 458.905 66.5589 458.405 66.17C458.016 65.8922 457.405 65.3644 456.571 64.5865C455.738 63.8087 454.766 63.1976 453.654 62.7531C452.543 62.3086 451.238 62.0864 449.738 62.0864C447.682 62.0864 446.085 62.5309 444.946 63.4198C443.807 64.3088 443.237 65.4755 443.237 66.92C443.237 67.9756 443.515 68.8368 444.071 69.5035C444.626 70.1702 445.71 70.8091 447.321 71.4202C448.932 72.0313 451.349 72.6425 454.571 73.2536C459.905 74.3092 463.724 75.9482 466.03 78.1706C468.336 80.3929 469.489 83.1152 469.489 86.3376C469.489 90.2267 467.794 93.3935 464.405 95.8381C461.016 98.2827 456.266 99.5049 450.154 99.5049C445.987 99.5049 442.487 98.8799 439.654 97.6298ZM477.906 113.964C477.517 113.603 477.322 113.117 477.322 112.506V57.3362C477.322 56.725 477.517 56.2389 477.906 55.8778C478.295 55.5166 478.767 55.3361 479.322 55.3361H485.906C486.517 55.3361 487.003 55.5166 487.364 55.8778C487.726 56.2389 487.906 56.725 487.906 57.3362V60.6697C491.017 56.5584 495.462 54.5027 501.24 54.5027C506.852 54.5027 511.157 56.2667 514.157 59.7946C517.158 63.3226 518.769 68.0867 518.991 74.087C519.047 74.7537 519.074 75.726 519.074 77.0038C519.074 78.3372 519.047 79.3373 518.991 80.004C518.769 85.8376 517.158 90.5462 514.157 94.1297C511.157 97.7132 506.852 99.5049 501.24 99.5049C495.629 99.5049 491.351 97.5326 488.406 93.588V112.506C488.406 113.117 488.226 113.603 487.864 113.964C487.503 114.325 487.017 114.506 486.406 114.506H479.322C478.767 114.506 478.295 114.325 477.906 113.964ZM507.74 79.504C507.796 78.9484 507.824 78.115 507.824 77.0038C507.824 75.8927 507.796 75.0593 507.74 74.5037C507.352 67.1144 504.157 63.4198 498.157 63.4198C494.934 63.4198 492.545 64.4476 490.99 66.5033C489.434 68.559 488.573 71.0869 488.406 74.087L488.323 77.2538L488.406 80.504C488.517 83.2819 489.392 85.657 491.031 87.6294C492.67 89.6017 495.045 90.5878 498.157 90.5878C504.157 90.5878 507.352 86.8932 507.74 79.504ZM528.241 98.0882C527.853 97.6993 527.658 97.2271 527.658 96.6715V41.502C527.658 40.8909 527.853 40.4048 528.241 40.0436C528.63 39.6825 529.103 39.502 529.658 39.502H537.075C537.686 39.502 538.173 39.6825 538.534 40.0436C538.895 40.4048 539.075 40.8909 539.075 41.502V60.503C542.409 56.5028 546.909 54.5027 552.576 54.5027C557.687 54.5027 561.771 56.1833 564.827 59.5446C567.882 62.9059 569.41 67.4756 569.41 73.2536V96.6715C569.41 97.2271 569.23 97.6993 568.868 98.0882C568.507 98.4771 568.021 98.6716 567.41 98.6716H559.91C559.354 98.6716 558.882 98.4771 558.493 98.0882C558.104 97.6993 557.91 97.2271 557.91 96.6715V73.7537C557.91 70.4757 557.118 67.9339 555.534 66.1283C553.951 64.3226 551.659 63.4198 548.659 63.4198C545.715 63.4198 543.381 64.3365 541.659 66.17C539.936 68.0034 539.075 70.5313 539.075 73.7537V96.6715C539.075 97.2271 538.895 97.6993 538.534 98.0882C538.173 98.4771 537.686 98.6716 537.075 98.6716H529.658C529.103 98.6716 528.63 98.4771 528.241 98.0882ZM583.119 94.1297C579.48 90.5462 577.549 85.5042 577.327 79.0039L577.244 76.9205L577.327 74.837C577.605 68.5034 579.563 63.5309 583.203 59.9196C586.842 56.3083 591.717 54.5027 597.828 54.5027C604.384 54.5027 609.454 56.5028 613.037 60.503C616.621 64.5032 618.413 69.8368 618.413 76.5038V78.2539C618.413 78.8095 618.218 79.2817 617.829 79.6706C617.44 80.0595 616.94 80.254 616.329 80.254H588.661V80.9207C588.772 83.9764 589.62 86.546 591.203 88.6294C592.786 90.7128 594.967 91.7546 597.745 91.7546C601.023 91.7546 603.662 90.4767 605.662 87.921C606.162 87.3099 606.565 86.921 606.87 86.7543C607.176 86.5876 607.634 86.5043 608.245 86.5043H615.413C615.913 86.5043 616.343 86.6571 616.704 86.9627C617.065 87.2682 617.246 87.6433 617.246 88.0877C617.246 89.4211 616.454 90.9906 614.871 92.7963C613.287 94.6019 611.023 96.1714 608.079 97.5048C605.134 98.8382 601.717 99.5049 597.828 99.5049C591.661 99.5049 586.758 97.7132 583.119 94.1297ZM607.079 73.2536V73.0036C607.079 69.7257 606.259 67.0867 604.62 65.0866C602.981 63.0865 600.717 62.0864 597.828 62.0864C594.939 62.0864 592.689 63.0865 591.078 65.0866C589.467 67.0867 588.661 69.7257 588.661 73.0036V73.2536H607.079ZM626.996 98.0882C626.607 97.6993 626.413 97.2271 626.413 96.6715V57.4195C626.413 56.8639 626.607 56.3778 626.996 55.9611C627.385 55.5444 627.858 55.3361 628.413 55.3361H635.163C635.775 55.3361 636.275 55.5305 636.664 55.9194C637.052 56.3083 637.247 56.8084 637.247 57.4195V60.8363C638.58 59.0585 640.261 57.6973 642.289 56.7528C644.317 55.8083 646.636 55.3361 649.248 55.3361H652.664C653.275 55.3361 653.762 55.5166 654.123 55.8778C654.484 56.2389 654.664 56.725 654.664 57.3362V63.3365C654.664 63.8921 654.484 64.3643 654.123 64.7532C653.762 65.1421 653.275 65.3366 652.664 65.3366H646.164C643.553 65.3366 641.497 66.0866 639.997 67.5867C638.497 69.0868 637.747 71.1424 637.747 73.7537V96.6715C637.747 97.2271 637.553 97.6993 637.164 98.0882C636.775 98.4771 636.275 98.6716 635.664 98.6716H628.413C627.858 98.6716 627.385 98.4771 626.996 98.0882ZM663.707 94.1297C660.068 90.5462 658.137 85.5042 657.915 79.0039L657.831 76.9205L657.915 74.837C658.192 68.5034 660.151 63.5309 663.79 59.9196C667.429 56.3083 672.304 54.5027 678.416 54.5027C684.972 54.5027 690.041 56.5028 693.625 60.503C697.208 64.5032 699 69.8368 699 76.5038V78.2539C699 78.8095 698.806 79.2817 698.417 79.6706C698.028 80.0595 697.528 80.254 696.917 80.254H669.249V80.9207C669.36 83.9764 670.207 86.546 671.79 88.6294C673.374 90.7128 675.554 91.7546 678.332 91.7546C681.61 91.7546 684.249 90.4767 686.249 87.921C686.749 87.3099 687.152 86.921 687.458 86.7543C687.763 86.5876 688.222 86.5043 688.833 86.5043H696C696.5 86.5043 696.93 86.6571 697.292 86.9627C697.653 87.2682 697.833 87.6433 697.833 88.0877C697.833 89.4211 697.042 90.9906 695.458 92.7963C693.875 94.6019 691.611 96.1714 688.666 97.5048C685.722 98.8382 682.305 99.5049 678.416 99.5049C672.249 99.5049 667.346 97.7132 663.707 94.1297ZM687.666 73.2536V73.0036C687.666 69.7257 686.847 67.0867 685.208 65.0866C683.569 63.0865 681.305 62.0864 678.416 62.0864C675.527 62.0864 673.276 63.0865 671.665 65.0866C670.054 67.0867 669.249 69.7257 669.249 73.0036V73.2536H687.666Z" fill="#F1F5F9"/>
</svg>
