<svg width="150" height="153" viewBox="0 0 150 153" fill="none" xmlns="http://www.w3.org/2000/svg">
<g opacity="0.56">
<path d="M28.5719 70.0432C21.3744 78.3001 15.2051 87.4605 10.2822 97.3688C22.9012 123.76 46.2385 144.075 74.6235 152.674C74.8727 152.612 75.122 152.518 75.3713 152.425C86.0273 140.211 94.3153 125.878 99.5499 110.175C71.7881 104.442 47.1421 90.0778 28.5719 70.0432Z" fill="#6366F1"/>
</g>
<path d="M146.567 28.3849L146.536 28.3538C129.898 12.8059 108.243 2.61728 84.2824 0.436218C90.2959 9.22278 95.2189 18.8506 98.8332 29.0393C103.445 42.0633 105.968 56.0533 105.968 70.6664C105.968 84.4694 103.725 97.7427 99.581 110.144C94.3465 125.847 86.0273 140.18 75.4024 152.394C97.6181 145.477 116.656 131.393 129.835 112.854C142.081 95.6551 149.278 74.6546 149.278 51.9716C149.247 43.8705 148.281 35.9875 146.567 28.3849Z" fill="#6366F1"/>
<path d="M84.2824 0.43622C81.1043 0.155798 77.9262 0 74.7169 0C46.7993 0 21.4679 10.8742 2.64843 28.6031C2.61727 28.7589 2.58611 28.9458 2.55495 29.1016C0.903577 36.486 0 44.1509 0 52.0027C0 68.2672 3.67665 83.6281 10.2821 97.3688C15.2051 87.4606 21.3744 78.269 28.5719 70.0432C46.5501 49.4789 71.0403 34.7412 98.8332 29.0393C95.1877 18.8506 90.2959 9.25394 84.2824 0.43622Z" fill="#6366F1"/>
</svg>
