<svg width="700" height="153" viewBox="0 0 700 153" fill="none" xmlns="http://www.w3.org/2000/svg">
<g opacity="0.56">
<path d="M28.5719 70.0432C21.3744 78.3001 15.2051 87.4605 10.2822 97.3688C22.9011 123.76 46.2385 144.075 74.6235 152.674C74.8727 152.612 75.122 152.518 75.3712 152.425C86.0273 140.211 94.3153 125.878 99.5499 110.175C71.7881 104.442 47.1421 90.0778 28.5719 70.0432Z" fill="#F59E0B"/>
</g>
<path d="M146.567 28.3849L146.536 28.3538C129.898 12.8059 108.243 2.61728 84.2824 0.436218C90.2959 9.22278 95.2189 18.8506 98.8332 29.0393C103.445 42.0633 105.968 56.0533 105.968 70.6664C105.968 84.4694 103.725 97.7427 99.581 110.144C94.3465 125.847 86.0273 140.18 75.4024 152.394C97.6181 145.477 116.656 131.393 129.835 112.854C142.081 95.6551 149.278 74.6546 149.278 51.9716C149.247 43.8705 148.281 35.9875 146.567 28.3849Z" fill="#F59E0B"/>
<path d="M84.2824 0.43622C81.1043 0.155798 77.9262 0 74.7169 0C46.7993 0 21.4679 10.8742 2.64843 28.6031C2.61727 28.7589 2.58611 28.9458 2.55495 29.1016C0.903577 36.486 0 44.1509 0 52.0027C0 68.2672 3.67665 83.6281 10.2821 97.3688C15.2051 87.4606 21.3744 78.269 28.5719 70.0432C46.5501 49.4789 71.0403 34.7412 98.8332 29.0393C95.1877 18.8506 90.2959 9.25394 84.2824 0.43622Z" fill="#F59E0B"/>
<path d="M177.599 98.1715C177.238 97.8382 177.057 97.4215 177.057 96.9215L177.224 96.1714L197.308 42.4188C197.697 41.0298 198.669 40.3353 200.225 40.3353H209.309C210.753 40.3353 211.726 41.0298 212.226 42.4188L232.31 96.1714C232.366 96.3381 232.393 96.5881 232.393 96.9215C232.393 97.4215 232.227 97.8382 231.893 98.1715C231.56 98.5049 231.171 98.6716 230.727 98.6716H223.476C222.754 98.6716 222.198 98.5049 221.809 98.1715C221.421 97.8382 221.171 97.4771 221.059 97.0882L217.143 86.921H192.391L188.474 97.0882C188.03 98.1438 187.224 98.6716 186.058 98.6716H178.807C178.363 98.6716 177.96 98.5049 177.599 98.1715ZM214.226 77.3372L204.725 51.5859L195.308 77.3372H214.226ZM240.977 94.088C237.977 90.4767 236.366 85.6709 236.144 79.6706L236.06 76.9205L236.144 74.2537C236.31 68.4201 237.907 63.6698 240.935 60.003C243.963 56.3361 248.283 54.5027 253.894 54.5027C259.284 54.5027 263.562 56.3361 266.728 60.003V41.502C266.728 40.8909 266.923 40.4048 267.312 40.0436C267.701 39.6825 268.173 39.502 268.728 39.502H275.812C276.423 39.502 276.909 39.6825 277.271 40.0436C277.632 40.4048 277.812 40.8909 277.812 41.502V96.6715C277.812 97.2271 277.632 97.6993 277.271 98.0882C276.909 98.4771 276.423 98.6716 275.812 98.6716H269.228C268.673 98.6716 268.201 98.4771 267.812 98.0882C267.423 97.6993 267.228 97.2271 267.228 96.6715V93.588C264.062 97.5326 259.617 99.5049 253.894 99.5049C248.283 99.5049 243.977 97.6993 240.977 94.088ZM264.145 87.5043C265.701 85.4487 266.562 82.9208 266.728 79.9206C266.784 79.2539 266.812 78.1705 266.812 76.6705C266.812 75.2259 266.784 74.1704 266.728 73.5037C266.617 70.7257 265.742 68.3506 264.103 66.3783C262.464 64.406 260.089 63.4198 256.978 63.4198C250.978 63.4198 247.783 67.1144 247.394 74.5037L247.311 77.0038L247.394 79.504C247.783 86.8932 250.978 90.5878 256.978 90.5878C260.2 90.5878 262.589 89.56 264.145 87.5043ZM288.646 98.0882C288.257 97.6993 288.063 97.2271 288.063 96.6715V57.3362C288.063 56.7806 288.257 56.3083 288.646 55.9194C289.035 55.5305 289.507 55.3361 290.063 55.3361H296.563C297.119 55.3361 297.591 55.5305 297.98 55.9194C298.369 56.3083 298.563 56.7806 298.563 57.3362V60.1696C301.452 56.3917 305.48 54.5027 310.647 54.5027C316.814 54.5027 321.12 56.975 323.565 61.9197C324.898 59.6974 326.787 57.9056 329.231 56.5445C331.676 55.1833 334.315 54.5027 337.149 54.5027C341.704 54.5027 345.427 56.0583 348.316 59.1696C351.205 62.2809 352.649 66.8089 352.649 72.7536V96.6715C352.649 97.2271 352.469 97.6993 352.108 98.0882C351.747 98.4771 351.26 98.6716 350.649 98.6716H343.816C343.26 98.6716 342.788 98.4771 342.399 98.0882C342.01 97.6993 341.815 97.2271 341.815 96.6715V73.4203C341.815 69.9201 341.079 67.3783 339.607 65.7949C338.135 64.2115 336.176 63.4198 333.732 63.4198C331.565 63.4198 329.718 64.2254 328.19 65.8366C326.662 67.4478 325.898 69.9757 325.898 73.4203V96.6715C325.898 97.2271 325.704 97.6993 325.315 98.0882C324.926 98.4771 324.453 98.6716 323.898 98.6716H317.064C316.509 98.6716 316.036 98.4771 315.647 98.0882C315.259 97.6993 315.064 97.2271 315.064 96.6715V73.4203C315.064 69.9201 314.3 67.3783 312.772 65.7949C311.244 64.2115 309.314 63.4198 306.98 63.4198C304.758 63.4198 302.883 64.2254 301.355 65.8366C299.827 67.4478 299.063 69.9757 299.063 73.4203V96.6715C299.063 97.2271 298.869 97.6993 298.48 98.0882C298.091 98.4771 297.619 98.6716 297.063 98.6716H290.063C289.507 98.6716 289.035 98.4771 288.646 98.0882ZM362.65 47.5857C362.261 47.1968 362.066 46.7245 362.066 46.169V40.1686C362.066 39.6131 362.261 39.1408 362.65 38.7519C363.039 38.363 363.511 38.1685 364.067 38.1685H371.65C372.206 38.1685 372.692 38.363 373.109 38.7519C373.525 39.1408 373.734 39.6131 373.734 40.1686V46.169C373.734 46.7245 373.539 47.1968 373.15 47.5857C372.761 47.9746 372.261 48.169 371.65 48.169H364.067C363.511 48.169 363.039 47.9746 362.65 47.5857ZM362.983 98.0882C362.594 97.6993 362.4 97.2271 362.4 96.6715V57.3362C362.4 56.7806 362.594 56.3083 362.983 55.9194C363.372 55.5305 363.844 55.3361 364.4 55.3361H371.317C371.928 55.3361 372.414 55.5166 372.775 55.8778C373.136 56.2389 373.317 56.725 373.317 57.3362V96.6715C373.317 97.2271 373.136 97.6993 372.775 98.0882C372.414 98.4771 371.928 98.6716 371.317 98.6716H364.4C363.844 98.6716 363.372 98.4771 362.983 98.0882ZM384.151 98.0882C383.762 97.6993 383.568 97.2271 383.568 96.6715V57.3362C383.568 56.7806 383.762 56.3083 384.151 55.9194C384.54 55.5305 385.012 55.3361 385.568 55.3361H392.401C392.957 55.3361 393.429 55.5305 393.818 55.9194C394.207 56.3083 394.401 56.7806 394.401 57.3362V60.753C397.679 56.5861 402.318 54.5027 408.319 54.5027C413.43 54.5027 417.486 56.1833 420.486 59.5446C423.486 62.9059 424.986 67.4756 424.986 73.2536V96.6715C424.986 97.2271 424.806 97.6993 424.445 98.0882C424.083 98.4771 423.597 98.6716 422.986 98.6716H415.652C415.097 98.6716 414.625 98.4771 414.236 98.0882C413.847 97.6993 413.652 97.2271 413.652 96.6715V73.7537C413.652 70.4757 412.861 67.9339 411.277 66.1283C409.694 64.3226 407.402 63.4198 404.402 63.4198C401.457 63.4198 399.138 64.3365 397.443 66.17C395.749 68.0034 394.901 70.5313 394.901 73.7537V96.6715C394.901 97.2271 394.721 97.6993 394.36 98.0882C393.999 98.4771 393.512 98.6716 392.901 98.6716H385.568C385.012 98.6716 384.54 98.4771 384.151 98.0882ZM440.654 97.6298C437.82 96.3798 435.723 94.9075 434.362 93.213C433.001 91.5184 432.32 90.06 432.32 88.8377C432.32 88.2821 432.514 87.8377 432.903 87.5043C433.292 87.171 433.737 87.0043 434.237 87.0043H440.82C441.32 87.0043 441.737 87.1988 442.07 87.5877C442.293 87.7543 442.876 88.2544 443.821 89.0878C444.765 89.9767 445.876 90.6712 447.154 91.1712C448.432 91.6712 449.849 91.9212 451.404 91.9212C453.627 91.9212 455.46 91.4767 456.905 90.5878C458.349 89.6989 459.071 88.4766 459.071 86.921C459.071 85.7542 458.752 84.8098 458.113 84.0875C457.474 83.3652 456.321 82.7124 454.654 82.1291C452.988 81.5457 450.515 80.9207 447.237 80.254C442.515 79.2539 439.029 77.7261 436.779 75.6704C434.528 73.6148 433.403 70.8924 433.403 67.5033C433.403 65.281 434.07 63.1837 435.403 61.2114C436.737 59.239 438.723 57.6279 441.362 56.3778C444.001 55.1277 447.154 54.5027 450.821 54.5027C454.543 54.5027 457.766 55.1 460.488 56.2945C463.21 57.489 465.28 58.9057 466.697 60.5447C468.113 62.1836 468.822 63.642 468.822 64.9199C468.822 65.4199 468.641 65.8505 468.28 66.2116C467.919 66.5727 467.488 66.7533 466.988 66.7533H460.821C460.377 66.7533 459.905 66.5589 459.405 66.17C459.016 65.8922 458.405 65.3644 457.571 64.5865C456.738 63.8087 455.766 63.1976 454.654 62.7531C453.543 62.3086 452.238 62.0864 450.738 62.0864C448.682 62.0864 447.085 62.5309 445.946 63.4198C444.807 64.3088 444.237 65.4755 444.237 66.92C444.237 67.9756 444.515 68.8368 445.071 69.5035C445.626 70.1702 446.71 70.8091 448.321 71.4202C449.932 72.0313 452.349 72.6425 455.571 73.2536C460.905 74.3092 464.724 75.9482 467.03 78.1706C469.336 80.3929 470.489 83.1152 470.489 86.3376C470.489 90.2267 468.794 93.3935 465.405 95.8381C462.016 98.2827 457.266 99.5049 451.154 99.5049C446.987 99.5049 443.487 98.8799 440.654 97.6298ZM478.906 113.964C478.517 113.603 478.322 113.117 478.322 112.506V57.3362C478.322 56.725 478.517 56.2389 478.906 55.8778C479.295 55.5166 479.767 55.3361 480.322 55.3361H486.906C487.517 55.3361 488.003 55.5166 488.364 55.8778C488.726 56.2389 488.906 56.725 488.906 57.3362V60.6697C492.017 56.5584 496.462 54.5027 502.24 54.5027C507.852 54.5027 512.157 56.2667 515.157 59.7946C518.158 63.3226 519.769 68.0867 519.991 74.087C520.047 74.7537 520.074 75.726 520.074 77.0038C520.074 78.3372 520.047 79.3373 519.991 80.004C519.769 85.8376 518.158 90.5462 515.157 94.1297C512.157 97.7132 507.852 99.5049 502.24 99.5049C496.629 99.5049 492.351 97.5326 489.406 93.588V112.506C489.406 113.117 489.226 113.603 488.864 113.964C488.503 114.325 488.017 114.506 487.406 114.506H480.322C479.767 114.506 479.295 114.325 478.906 113.964ZM508.74 79.504C508.796 78.9484 508.824 78.115 508.824 77.0038C508.824 75.8927 508.796 75.0593 508.74 74.5037C508.352 67.1144 505.157 63.4198 499.157 63.4198C495.934 63.4198 493.545 64.4476 491.99 66.5033C490.434 68.559 489.573 71.0869 489.406 74.087L489.323 77.2538L489.406 80.504C489.517 83.2819 490.392 85.657 492.031 87.6294C493.67 89.6017 496.045 90.5878 499.157 90.5878C505.157 90.5878 508.352 86.8932 508.74 79.504ZM529.241 98.0882C528.853 97.6993 528.658 97.2271 528.658 96.6715V41.502C528.658 40.8909 528.853 40.4048 529.241 40.0436C529.63 39.6825 530.103 39.502 530.658 39.502H538.075C538.686 39.502 539.173 39.6825 539.534 40.0436C539.895 40.4048 540.075 40.8909 540.075 41.502V60.503C543.409 56.5028 547.909 54.5027 553.576 54.5027C558.687 54.5027 562.771 56.1833 565.827 59.5446C568.882 62.9059 570.41 67.4756 570.41 73.2536V96.6715C570.41 97.2271 570.23 97.6993 569.868 98.0882C569.507 98.4771 569.021 98.6716 568.41 98.6716H560.91C560.354 98.6716 559.882 98.4771 559.493 98.0882C559.104 97.6993 558.91 97.2271 558.91 96.6715V73.7537C558.91 70.4757 558.118 67.9339 556.534 66.1283C554.951 64.3226 552.659 63.4198 549.659 63.4198C546.715 63.4198 544.381 64.3365 542.659 66.17C540.936 68.0034 540.075 70.5313 540.075 73.7537V96.6715C540.075 97.2271 539.895 97.6993 539.534 98.0882C539.173 98.4771 538.686 98.6716 538.075 98.6716H530.658C530.103 98.6716 529.63 98.4771 529.241 98.0882ZM584.119 94.1297C580.48 90.5462 578.549 85.5042 578.327 79.0039L578.244 76.9205L578.327 74.837C578.605 68.5034 580.563 63.5309 584.203 59.9196C587.842 56.3083 592.717 54.5027 598.828 54.5027C605.384 54.5027 610.454 56.5028 614.037 60.503C617.621 64.5032 619.413 69.8368 619.413 76.5038V78.2539C619.413 78.8095 619.218 79.2817 618.829 79.6706C618.44 80.0595 617.94 80.254 617.329 80.254H589.661V80.9207C589.772 83.9764 590.62 86.546 592.203 88.6294C593.786 90.7128 595.967 91.7546 598.745 91.7546C602.023 91.7546 604.662 90.4767 606.662 87.921C607.162 87.3099 607.565 86.921 607.87 86.7543C608.176 86.5876 608.634 86.5043 609.245 86.5043H616.412C616.913 86.5043 617.343 86.6571 617.704 86.9627C618.065 87.2682 618.246 87.6433 618.246 88.0877C618.246 89.4211 617.454 90.9906 615.871 92.7963C614.287 94.6019 612.023 96.1714 609.079 97.5048C606.134 98.8382 602.717 99.5049 598.828 99.5049C592.661 99.5049 587.758 97.7132 584.119 94.1297ZM608.079 73.2536V73.0036C608.079 69.7257 607.259 67.0867 605.62 65.0866C603.981 63.0865 601.717 62.0864 598.828 62.0864C595.939 62.0864 593.689 63.0865 592.078 65.0866C590.467 67.0867 589.661 69.7257 589.661 73.0036V73.2536H608.079ZM627.996 98.0882C627.607 97.6993 627.413 97.2271 627.413 96.6715V57.4195C627.413 56.8639 627.607 56.3778 627.996 55.9611C628.385 55.5444 628.858 55.3361 629.413 55.3361H636.163C636.775 55.3361 637.275 55.5305 637.664 55.9194C638.052 56.3083 638.247 56.8084 638.247 57.4195V60.8363C639.58 59.0585 641.261 57.6973 643.289 56.7528C645.317 55.8083 647.636 55.3361 650.248 55.3361H653.664C654.275 55.3361 654.762 55.5166 655.123 55.8778C655.484 56.2389 655.664 56.725 655.664 57.3362V63.3365C655.664 63.8921 655.484 64.3643 655.123 64.7532C654.762 65.1421 654.275 65.3366 653.664 65.3366H647.164C644.553 65.3366 642.497 66.0866 640.997 67.5867C639.497 69.0868 638.747 71.1424 638.747 73.7537V96.6715C638.747 97.2271 638.553 97.6993 638.164 98.0882C637.775 98.4771 637.275 98.6716 636.664 98.6716H629.413C628.858 98.6716 628.385 98.4771 627.996 98.0882ZM664.707 94.1297C661.068 90.5462 659.137 85.5042 658.915 79.0039L658.831 76.9205L658.915 74.837C659.192 68.5034 661.151 63.5309 664.79 59.9196C668.429 56.3083 673.304 54.5027 679.416 54.5027C685.972 54.5027 691.041 56.5028 694.625 60.503C698.208 64.5032 700 69.8368 700 76.5038V78.2539C700 78.8095 699.806 79.2817 699.417 79.6706C699.028 80.0595 698.528 80.254 697.917 80.254H670.249V80.9207C670.36 83.9764 671.207 86.546 672.79 88.6294C674.374 90.7128 676.554 91.7546 679.332 91.7546C682.61 91.7546 685.249 90.4767 687.249 87.921C687.749 87.3099 688.152 86.921 688.458 86.7543C688.763 86.5876 689.222 86.5043 689.833 86.5043H697C697.5 86.5043 697.93 86.6571 698.292 86.9627C698.653 87.2682 698.833 87.6433 698.833 88.0877C698.833 89.4211 698.042 90.9906 696.458 92.7963C694.875 94.6019 692.611 96.1714 689.666 97.5048C686.722 98.8382 683.305 99.5049 679.416 99.5049C673.249 99.5049 668.346 97.7132 664.707 94.1297ZM688.666 73.2536V73.0036C688.666 69.7257 687.847 67.0867 686.208 65.0866C684.569 63.0865 682.305 62.0864 679.416 62.0864C676.527 62.0864 674.276 63.0865 672.665 65.0866C671.054 67.0867 670.249 69.7257 670.249 73.0036V73.2536H688.666Z" fill="#F1F5F9"/>
</svg>
